<svg width="717" height="420" viewBox="0 0 717 420" fill="none" xmlns="http://www.w3.org/2000/svg">
<path d="M0.697841 92.9368C0.482873 91.0595 1.83042 89.3634 3.70768 89.1485L14.537 87.9084C16.4142 87.6934 18.1103 89.041 18.3253 90.9182L20.3221 108.356C20.537 110.233 19.1895 111.929 17.3122 112.144L6.48296 113.384C4.6057 113.599 2.90962 112.252 2.69465 110.374L0.697841 92.9368Z" fill="#10202D"/>
<path d="M21.2144 91.6155C21.0559 90.2305 22.05 88.9792 23.435 88.8206C24.82 88.662 26.0713 89.6562 26.2299 91.0412L27.9073 105.69C28.0659 107.075 27.0718 108.326 25.6868 108.485C24.3018 108.643 23.0505 107.649 22.8919 106.264L21.2144 91.6155Z" fill="#10202D"/>
<path d="M29.3091 90.8436C29.0941 88.9663 30.4416 87.2702 32.3189 87.0552L33.3472 86.9375C35.2245 86.7225 36.9205 88.0701 37.1355 89.9473L38.8941 105.305C39.1091 107.182 37.7616 108.878 35.8843 109.093L34.856 109.211C32.9787 109.426 31.2826 108.078 31.0677 106.201L29.3091 90.8436Z" fill="#10202D"/>
<path d="M40.1575 94.633C39.9201 92.7585 41.2473 91.0464 43.1219 90.8091L272.408 61.7772C274.283 61.5398 275.995 62.8671 276.232 64.7416L276.766 68.9598C277.004 70.8343 275.676 72.5464 273.802 72.7837L44.5155 101.816C42.6409 102.053 40.9289 100.726 40.6915 98.8512L40.1575 94.633Z" fill="#10202D"/>
<path d="M278.034 61.3977C277.45 56.9006 280.622 52.7814 285.119 52.1971L423.133 34.2659C427.63 33.6816 431.75 36.8536 432.334 41.3506L433.467 50.0731C434.052 54.5702 430.88 58.6894 426.383 59.2737L288.368 77.2049C283.871 77.7892 279.752 74.6172 279.168 70.1201L278.034 61.3977Z" fill="#10202D"/>
<path d="M435.208 41.844C435.013 40.345 436.07 38.9719 437.569 38.7772L457.168 35.984C458.667 35.7892 460.04 36.8465 460.235 38.3456L461.153 45.4086C461.348 46.9076 460.29 48.2807 458.791 48.4755C458.791 48.4755 440.691 51.0739 439.192 51.2686C437.693 51.4634 436.32 50.4061 436.125 48.9071L435.208 41.844Z" fill="#10202D"/>
<path d="M462.583 32.57C462.388 31.0709 463.445 29.6979 464.944 29.5031L476.899 28.3638C478.398 28.169 479.771 29.2263 479.966 30.7254L482.284 48.5669C482.479 50.0659 481.422 51.439 479.923 51.6337L467.968 52.7731C466.468 52.9678 465.095 51.9105 464.901 50.4115L462.583 32.57Z" fill="#10202D"/>
<path d="M483.4 31.4667C483.236 30.2064 484.125 29.0519 485.386 28.8882C486.646 28.7244 487.801 29.6134 487.964 30.8738L489.864 45.4927C490.027 46.7531 489.138 47.9075 487.878 48.0713C486.618 48.235 485.463 47.3461 485.3 46.0857L483.4 31.4667Z" fill="#10202D"/>
<path d="M554.966 89.0468C566.71 85.4366 582.879 94.3212 586.586 103.071C589.559 110.087 596.696 127.515 599.408 134.146C599.995 135.582 601.652 136.233 603.066 135.594L619.809 128.022C621.131 127.424 621.757 125.898 621.235 124.543L606.461 86.2181C604.914 81.8292 600.137 79.4066 599.394 77.8284C598.651 76.2502 596.199 71.2186 596.199 71.2186L592.586 62.8604L587.715 52.1901L527.781 59.9769L536.973 81.9167C539.973 88.8541 543.222 92.657 554.966 89.0468Z" fill="#10202D"/>
<path d="M648.247 165.89L673.911 154.558L686.63 149.027C690.122 146.44 690.856 141.512 688.268 138.02C685.645 134.146 683.547 133.463 679.471 133.041C664.127 130.848 657.405 119.815 646.297 96.4643L646.091 96.0312L619.97 45.3296L611.853 49.0539L587.715 52.1901L592.586 62.8604C602.333 66.6055 607.082 71.0999 613.281 86.7005L648.247 165.89Z" fill="#10202D"/>
<path d="M657.323 166.025C656.873 164.98 657.355 163.768 658.4 163.318L672.213 157.371C673.258 156.921 674.47 157.404 674.92 158.449C675.37 159.494 674.888 160.707 673.842 161.157L660.03 167.103C658.985 167.553 657.773 167.071 657.323 166.025Z" fill="#10202D"/>
<path d="M658.018 173.114C657.42 171.725 658.061 170.115 659.45 169.517L676.009 162.387C677.398 161.789 679.008 162.43 679.606 163.819L684.703 175.658C685.301 177.046 684.66 178.656 683.272 179.254L666.712 186.384C665.324 186.982 663.714 186.341 663.116 184.953L658.018 173.114Z" fill="#10202D"/>
<path d="M669.49 190.162C668.892 188.774 669.533 187.164 670.921 186.566L680.333 182.514C681.721 181.917 683.331 182.558 683.929 183.946L691.934 202.54C692.532 203.928 691.891 205.538 690.502 206.136L689.399 206.611L682.17 209.723L681.091 210.188C679.703 210.786 678.092 210.145 677.495 208.756L669.49 190.162Z" fill="#10202D"/>
<path d="M687.747 215.754L689.947 214.807C691.336 214.209 691.977 212.599 691.379 211.211L689.399 206.611L682.17 209.723L684.151 214.323C684.748 215.711 686.358 216.352 687.747 215.754Z" fill="#10202D"/>
<path fill-rule="evenodd" clip-rule="evenodd" d="M632.123 129.372L635.24 136.43L576.938 163.156L500.499 105.913L493.984 53.7312L494.285 56.0486C494.869 60.5457 498.989 63.7176 503.486 63.1334L508.179 101.876L577.714 153.629L632.123 129.372ZM619.97 45.3296C617.781 47.2979 614.994 48.6459 611.853 49.0539L619.97 45.3296Z" fill="#10202D"/>
<path d="M594.579 1.06522L497.068 13.7342C492.571 14.3184 489.399 18.4377 489.983 22.9347L493.984 53.7312L494.285 56.0486C494.869 60.5457 498.989 63.7176 503.486 63.1334L527.781 59.9769L587.715 52.1901L611.853 49.0539L619.97 45.3296C619.981 45.3195 619.993 45.3094 620.004 45.2993C623.541 42.0993 625.503 37.2747 624.842 32.1862L623.714 23.5002C621.864 9.25953 608.819 -0.784977 594.579 1.06522Z" fill="#10202D"/>
<path d="M689.947 214.807L687.747 215.754C687.747 215.754 683.52 331.589 683.587 356.242C683.655 380.894 698.043 418.501 716.821 419.874L716.821 406.585C703.674 400.31 690.718 375.543 688.728 358.169C686.414 337.954 689.947 214.807 689.947 214.807Z" fill="#10202D"/>
</svg>
