<svg width="20" height="26" viewBox="0 0 20 26" fill="none" xmlns="http://www.w3.org/2000/svg">
<path d="M18.2308 25H1.76929C1.217 25 0.769287 24.5523 0.769287 24V2C0.769287 1.44772 1.217 1 1.76929 1H11.8462L19.2308 9.64V24C19.2308 24.5523 18.7831 25 18.2308 25Z" fill="#FFD664"/>
<path d="M11.8462 1H1.76929C1.217 1 0.769287 1.44772 0.769287 2V24C0.769287 24.5523 1.217 25 1.76929 25H18.2308C18.7831 25 19.2308 24.5523 19.2308 24V9.64M11.8462 1L19.2308 9.64M11.8462 1V8.64C11.8462 9.19229 12.2939 9.64 12.8462 9.64H19.2308M3.53852 5.61538H9.07698M3.53852 14.8462H16.4616M3.53852 19.4615H16.4616M3.53852 10.2308H9.07698" stroke="#10202D"/>
</svg>
