<svg width="26" height="26" viewBox="0 0 26 26" fill="none" xmlns="http://www.w3.org/2000/svg">
<path d="M23.9271 19.1535L24.9174 22.4422C25.3033 23.724 24.289 25 22.8841 25H3.11587C1.71099 25 0.696696 23.724 1.08265 22.4422L2.07288 19.1535C2.29039 18.431 2.91499 17.8845 3.69139 17.7371L11.6556 16.0492C11.9293 15.9972 13.4964 15.9972 13.7702 16.0492L22.3086 17.7371C23.085 17.8845 23.7096 18.431 23.9271 19.1535Z" fill="#FFD664"/>
<path d="M19.0566 7.01968C19.0566 10.3443 16.2164 13.0394 12.7128 13.0394C9.20925 13.0394 6.36905 10.3443 6.36905 7.01968C6.36905 3.6951 9.20925 1 12.7128 1C16.2164 1 19.0566 3.6951 19.0566 7.01968Z" fill="#FFD664"/>
<path d="M23.9271 19.1535L24.9174 22.4422C25.3033 23.724 24.289 25 22.8841 25H3.11587C1.71099 25 0.696696 23.724 1.08265 22.4422L2.07288 19.1535C2.29039 18.431 2.91499 17.8845 3.69139 17.7371L11.6556 16.0492C11.9293 15.9972 13.4964 15.9972 13.7702 16.0492L22.3086 17.7371C23.085 17.8845 23.7096 18.431 23.9271 19.1535Z" stroke="#10202D"/>
<path d="M19.0566 7.01968C19.0566 10.3443 16.2164 13.0394 12.7128 13.0394C9.20925 13.0394 6.36905 10.3443 6.36905 7.01968C6.36905 3.6951 9.20925 1 12.7128 1C16.2164 1 19.0566 3.6951 19.0566 7.01968Z" stroke="#10202D"/>
</svg>
