<svg width="25" height="12" viewBox="0 0 25 12" fill="none" xmlns="http://www.w3.org/2000/svg">
<path d="M24.9502 9.91273C24.9508 10.7546 24.2688 11.4366 23.4269 11.436L18.5705 11.4326C17.7286 11.4321 17.0457 10.7491 17.0451 9.90726L17.0397 2.08726C17.0391 1.2454 17.7211 0.563404 18.5629 0.563987L23.4194 0.567351C24.2613 0.567934 24.9442 1.25087 24.9448 2.09274L24.9502 9.91273Z" fill="#00567B"/>
<path d="M15.8012 9.45129C15.8016 10.0724 15.2985 10.5755 14.6774 10.5751C14.0563 10.5747 13.5524 10.0708 13.552 9.44974L13.5475 2.88044C13.547 2.25934 14.0502 1.75619 14.6713 1.75662C15.2924 1.75705 15.7962 2.2609 15.7967 2.882L15.8012 9.45129Z" fill="#00567B"/>
<path d="M12.179 9.38019C12.1795 10.2221 11.4975 10.9041 10.6557 10.9035L10.1945 10.9031C9.35266 10.9026 8.66972 10.2196 8.66913 9.37776L8.66436 2.49054C8.66378 1.64867 9.34577 0.966675 10.1876 0.967259L10.6488 0.967577C11.4907 0.968161 12.1736 1.6511 12.1742 2.49297L12.179 9.38019Z" fill="#00567B"/>
<path d="M7.54352 5.25544L7.56743 7.1497C7.57806 7.99151 6.90427 8.68161 6.06247 8.69107L-2.39971e-07 8.69107L-6.72078e-07 3.74834L6.00006 3.74834C6.84186 3.73887 7.53289 4.41363 7.54352 5.25544Z" fill="#00567B"/>
</svg>
