<svg width="48" height="48" viewBox="0 0 48 48" fill="none" xmlns="http://www.w3.org/2000/svg">
<path fill-rule="evenodd" clip-rule="evenodd" d="M48 24C48 37.2548 37.2548 48 24 48C10.7452 48 0 37.2548 0 24C0 10.7452 10.7452 0 24 0C37.2548 0 48 10.7452 48 24ZM24 46.5398C36.4484 46.5398 46.5398 36.4484 46.5398 24C46.5398 11.5516 36.4484 1.46022 24 1.46022C11.5516 1.46022 1.46022 11.5516 1.46022 24C1.46022 36.4484 11.5516 46.5398 24 46.5398Z" fill="#10202D"/>
<path d="M32.1436 7.8899C32.0759 7.81176 31.9576 7.80329 31.8795 7.87099L31.4287 8.26154C31.3506 8.32925 31.3421 8.44748 31.4098 8.52562L32.0387 9.25148C32.1064 9.32962 32.2246 9.33809 32.3027 9.27038L32.7535 8.87983C32.8317 8.81213 32.8401 8.6939 32.7724 8.61576L32.1436 7.8899Z" fill="#10202D"/>
<path d="M31.331 8.66787C31.281 8.61022 31.1938 8.60397 31.1361 8.65392C31.0785 8.70387 31.0722 8.79109 31.1222 8.84875L31.6505 9.45852C31.7004 9.51617 31.7877 9.52241 31.8453 9.47246C31.903 9.42251 31.9092 9.33529 31.8593 9.27764L31.331 8.66787Z" fill="#10202D"/>
<path d="M31.0003 8.96553C30.9326 8.88739 30.8143 8.87892 30.7362 8.94662L30.6934 8.98371C30.6152 9.05141 30.6068 9.16964 30.6745 9.24779L31.2283 9.88706C31.296 9.96521 31.4143 9.97367 31.4924 9.90597L31.5352 9.86888C31.6134 9.80118 31.6218 9.68295 31.5541 9.60481L31.0003 8.96553Z" fill="#10202D"/>
<path d="M20.608 17.9C20.4483 17.71 20.1649 17.6854 19.9749 17.845L14.1442 22.7436C13.9542 22.9033 13.9296 23.1867 14.0892 23.3767L14.3988 23.7452C14.5584 23.9352 14.8419 23.9598 15.0318 23.8002L20.8626 18.9015C21.0525 18.7419 21.0772 18.4585 20.9176 18.2685L20.608 17.9Z" fill="#10202D"/>
<path d="M14.0028 23.5107C13.9495 23.4474 13.8551 23.4392 13.7917 23.4924L12.9538 24.1789C12.8905 24.2321 12.8823 24.3266 12.9355 24.3899L13.1862 24.6883C13.2394 24.7516 13.3338 24.7599 13.3972 24.7067C13.3972 24.7067 14.1718 24.0733 14.2351 24.0201C14.2984 23.9669 14.3067 23.8725 14.2535 23.8091L14.0028 23.5107Z" fill="#10202D"/>
<path d="M12.6158 24.2708C12.5626 24.2074 12.4681 24.1992 12.4048 24.2525L11.9164 24.6921C11.8531 24.7453 11.8449 24.8398 11.8981 24.9031L12.5314 25.6569C12.5846 25.7202 12.679 25.7284 12.7424 25.6752L13.2308 25.2355C13.2941 25.1823 13.3023 25.0879 13.2491 25.0245L12.6158 24.2708Z" fill="#10202D"/>
<path d="M11.8009 25.0689C11.7561 25.0157 11.6767 25.0088 11.6235 25.0535C11.5702 25.0983 11.5633 25.1777 11.608 25.2309L12.1269 25.8486C12.1717 25.9018 12.2511 25.9087 12.3043 25.864C12.3576 25.8192 12.3645 25.7398 12.3198 25.6866L11.8009 25.0689Z" fill="#10202D"/>
<path d="M11.4728 30.0843C10.8926 30.424 10.6522 31.4045 10.8677 31.8778C11.0404 32.2572 11.4787 33.1899 11.6456 33.5446C11.6817 33.6214 11.6466 33.7123 11.5685 33.7456L10.6437 34.1401C10.5706 34.1713 10.486 34.14 10.4507 34.0689L9.45288 32.055C9.33327 31.8302 9.41241 31.5481 9.37632 31.4597C9.34023 31.3713 9.22816 31.0863 9.22816 31.0863L9.02506 30.6313L8.77529 30.0401L11.3073 27.9128L11.8513 29.0953C12.0199 29.4729 12.0529 29.7446 11.4728 30.0843Z" fill="#10202D"/>
<path d="M11.1173 36.6878L9.71074 37.3027L9.01712 37.6106C8.78361 37.6556 8.55785 37.5028 8.51286 37.2693C8.45382 37.0202 8.50395 36.9104 8.63783 36.7305C9.11734 36.0309 8.92141 35.3516 8.39147 34.0397L8.38164 34.0154L7.30499 31.0861L7.75549 30.8969L8.77529 30.0401L9.02506 30.6313C8.81521 31.1628 8.82061 31.5205 9.2199 32.3477L11.1173 36.6878Z" fill="#10202D"/>
<path d="M10.7869 37.0586C10.7614 37.0018 10.6947 36.9764 10.6379 37.0018L9.887 37.3384C9.83018 37.3639 9.80477 37.4306 9.83024 37.4874C9.85571 37.5443 9.92242 37.5697 9.97924 37.5442L10.7301 37.2076C10.7869 37.1821 10.8123 37.1154 10.7869 37.0586Z" fill="#10202D"/>
<path d="M11.0468 37.349C11.013 37.2735 10.9244 37.2397 10.8489 37.2736L9.94864 37.6771C9.87316 37.7109 9.8394 37.7995 9.87323 37.875L10.1617 38.5186C10.1955 38.5941 10.2842 38.6279 10.3596 38.594L11.2599 38.1905C11.3354 38.1567 11.3691 38.0681 11.3353 37.9926L11.0468 37.349Z" fill="#10202D"/>
<path d="M11.3093 38.4423C11.2755 38.3668 11.1869 38.3331 11.1114 38.3669L10.5998 38.5963C10.5243 38.6301 10.4906 38.7187 10.5244 38.7942L10.9775 39.805C11.0113 39.8805 11.0999 39.9142 11.1754 39.8804L11.2354 39.8535L11.6284 39.6773L11.6871 39.651C11.7625 39.6172 11.7963 39.5286 11.7625 39.4531L11.3093 38.4423Z" fill="#10202D"/>
<path d="M11.6651 40.1253L11.5454 40.1789C11.47 40.2127 11.3814 40.179 11.3475 40.1035L11.2354 39.8535L11.6284 39.6773L11.7405 39.9274C11.7743 40.0028 11.7405 40.0915 11.6651 40.1253Z" fill="#10202D"/>
<path fill-rule="evenodd" clip-rule="evenodd" d="M10.2423 34.6864L10.4114 35.0733L13.6464 33.7127L14.1684 28.5134L12.3065 26.3195L12.3887 26.4174C12.5483 26.6074 12.5237 26.8908 12.3337 27.0505L13.7214 28.6735L13.2337 33.3914L10.2423 34.6864ZM7.30499 31.0861C7.46533 31.0708 7.62283 31.0083 7.75549 30.8969L7.30499 31.0861Z" fill="#10202D"/>
<path d="M6.46079 28.4245L10.5804 24.9635C10.7703 24.8039 11.0538 24.8285 11.2134 25.0185L12.3065 26.3195L12.3887 26.4174C12.5483 26.6074 12.5237 26.8908 12.3337 27.0505L11.3073 27.9128L8.77529 30.0401L7.75549 30.8969L7.30499 31.0861C7.30416 31.0862 7.30334 31.0863 7.30252 31.0864C7.04263 31.1105 6.77557 31.011 6.59496 30.796L6.28666 30.4291C5.7812 29.8275 5.85916 28.93 6.46079 28.4245Z" fill="#10202D"/>
<path d="M15.852 7.8899C15.9197 7.81176 16.038 7.80329 16.1161 7.87099L16.5669 8.26154C16.645 8.32925 16.6535 8.44748 16.5858 8.52562L15.9569 9.25148C15.8892 9.32962 15.771 9.33809 15.6928 9.27038L15.242 8.87983C15.1639 8.81213 15.1554 8.6939 15.2231 8.61576L15.852 7.8899Z" fill="#10202D"/>
<path d="M16.6646 8.66787C16.7146 8.61022 16.8018 8.60397 16.8594 8.65392C16.9171 8.70387 16.9233 8.79109 16.8734 8.84875L16.3451 9.45852C16.2951 9.51617 16.2079 9.52241 16.1503 9.47246C16.0926 9.42251 16.0864 9.33529 16.1363 9.27764L16.6646 8.66787Z" fill="#10202D"/>
<path d="M16.9953 8.96553C17.063 8.88739 17.1812 8.87892 17.2594 8.94662L17.3022 8.98371C17.3803 9.05141 17.3888 9.16964 17.3211 9.24779L16.7672 9.88706C16.6995 9.96521 16.5813 9.97367 16.5032 9.90597L16.4603 9.86888C16.3822 9.80118 16.3737 9.68295 16.4414 9.60481L16.9953 8.96553Z" fill="#10202D"/>
<path d="M17.2441 9.543C17.3109 9.46405 17.429 9.45418 17.5079 9.52094L23.9978 15.0095L24.4678 15.407L27.1641 17.6873C27.243 17.754 27.2529 17.8721 27.1861 17.9511L27.0359 18.1287C26.9692 18.2077 26.851 18.2176 26.7721 18.1508L23.9978 15.8045L23.5277 15.407L17.1159 9.98447C17.037 9.91771 17.0271 9.79959 17.0939 9.72064L17.2441 9.543Z" fill="#10202D"/>
<path d="M27.3876 17.9C27.5472 17.71 27.8306 17.6854 28.0206 17.845L33.8514 22.7436C34.0413 22.9033 34.066 23.1867 33.9063 23.3767L33.5968 23.7452C33.4371 23.9352 33.1537 23.9598 32.9637 23.8002L27.133 18.9015C26.943 18.7419 26.9184 18.4585 27.078 18.2685L27.3876 17.9Z" fill="#10202D"/>
<path d="M33.9928 23.5107C34.046 23.4474 34.1405 23.4392 34.2038 23.4924L35.0418 24.1789C35.1051 24.2321 35.1133 24.3266 35.0601 24.3899L34.8094 24.6883C34.7562 24.7516 34.6617 24.7599 34.5984 24.7067C34.5984 24.7067 33.8238 24.0733 33.7605 24.0201C33.6971 23.9669 33.6889 23.8725 33.7421 23.8091L33.9928 23.5107Z" fill="#10202D"/>
<path d="M35.3798 24.2708C35.433 24.2074 35.5274 24.1992 35.5908 24.2525L36.0792 24.6921C36.1425 24.7453 36.1507 24.8398 36.0975 24.9031L35.4642 25.6569C35.411 25.7202 35.3165 25.7284 35.2532 25.6752L34.7648 25.2355C34.7015 25.1823 34.6933 25.0879 34.7465 25.0245L35.3798 24.2708Z" fill="#10202D"/>
<path d="M36.1947 25.0689C36.2394 25.0157 36.3189 25.0088 36.3721 25.0535C36.4254 25.0983 36.4323 25.1777 36.3875 25.2309L35.8686 25.8486C35.8239 25.9018 35.7445 25.9087 35.6912 25.864C35.638 25.8192 35.6311 25.7398 35.6758 25.6866L36.1947 25.0689Z" fill="#10202D"/>
<path d="M36.5228 30.0843C37.1029 30.424 37.3433 31.4045 37.1279 31.8778C36.9552 32.2572 36.5169 33.1899 36.35 33.5446C36.3139 33.6214 36.349 33.7123 36.4271 33.7456L37.3519 34.1401C37.425 34.1713 37.5096 34.14 37.5449 34.0689L38.5427 32.055C38.6623 31.8302 38.5832 31.5481 38.6193 31.4597C38.6553 31.3713 38.7674 31.0863 38.7674 31.0863L38.9705 30.6313L39.2203 30.0401L36.6882 27.9128L36.1442 29.0953C35.9757 29.4729 35.9426 29.7446 36.5228 30.0843Z" fill="#10202D"/>
<path d="M36.8783 36.6878L38.2848 37.3027L38.9785 37.6106C39.212 37.6556 39.4377 37.5028 39.4827 37.2693C39.5418 37.0202 39.4916 36.9104 39.3578 36.7305C38.8782 36.0309 39.0742 35.3516 39.6041 34.0397L39.6139 34.0154L40.6906 31.0861L40.2401 30.8969L39.2203 30.0401L38.9705 30.6313C39.1804 31.1628 39.175 31.5205 38.7757 32.3477L36.8783 36.6878Z" fill="#10202D"/>
<path d="M37.2087 37.0586C37.2342 37.0018 37.3009 36.9764 37.3577 37.0018L38.1086 37.3384C38.1654 37.3639 38.1908 37.4306 38.1653 37.4874C38.1399 37.5443 38.0732 37.5697 38.0163 37.5442L37.2655 37.2076C37.2086 37.1821 37.1832 37.1154 37.2087 37.0586Z" fill="#10202D"/>
<path d="M36.9488 37.349C36.9826 37.2735 37.0712 37.2397 37.1467 37.2736L38.0469 37.6771C38.1224 37.7109 38.1562 37.7995 38.1223 37.875L37.8339 38.5186C37.8 38.5941 37.7114 38.6279 37.6359 38.594L36.7357 38.1905C36.6602 38.1567 36.6264 38.0681 36.6603 37.9926L36.9488 37.349Z" fill="#10202D"/>
<path d="M36.6862 38.4423C36.7201 38.3668 36.8087 38.3331 36.8842 38.3669L37.3958 38.5963C37.4713 38.6301 37.505 38.7187 37.4712 38.7942L37.0181 39.805C36.9842 39.8805 36.8956 39.9142 36.8202 39.8804L36.7601 39.8535L36.3672 39.6773L36.3085 39.651C36.233 39.6172 36.1993 39.5286 36.2331 39.4531L36.6862 38.4423Z" fill="#10202D"/>
<path d="M36.3305 40.1253L36.4501 40.1789C36.5256 40.2127 36.6142 40.179 36.6481 40.1035L36.7601 39.8535L36.3672 39.6773L36.2551 39.9274C36.2213 40.0028 36.255 40.0915 36.3305 40.1253Z" fill="#10202D"/>
<path fill-rule="evenodd" clip-rule="evenodd" d="M37.7533 34.6864L37.5841 35.0733L34.3492 33.7127L33.8272 28.5134L35.6891 26.3195L35.6069 26.4174C35.4472 26.6074 35.4719 26.8908 35.6618 27.0505L34.2741 28.6735L34.7619 33.3914L37.7533 34.6864ZM40.6906 31.0861C40.5302 31.0708 40.3727 31.0083 40.2401 30.8969L40.6906 31.0861Z" fill="#10202D"/>
<path d="M41.5348 28.4245L37.4152 24.9635C37.2252 24.8039 36.9418 24.8285 36.7822 25.0185L35.6891 26.3195L35.6069 26.4174C35.4472 26.6074 35.4719 26.8908 35.6618 27.0505L36.6882 27.9128L39.2203 30.0401L40.2401 30.8969L40.6906 31.0861C40.6914 31.0862 40.6922 31.0863 40.6931 31.0864C40.9529 31.1105 41.22 31.011 41.4006 30.796L41.7089 30.4291C42.2144 29.8275 42.1364 28.93 41.5348 28.4245Z" fill="#10202D"/>
<path d="M20.8094 17.9511L20.9597 18.1287C21.0264 18.2077 21.1445 18.2176 21.2235 18.1508L23.8423 15.936L23.3743 15.5368L20.8315 17.6873C20.7525 17.754 20.7427 17.8721 20.8094 17.9511Z" fill="#10202D"/>
<path d="M30.9017 9.72064L30.7515 9.543C30.6847 9.46405 30.5666 9.45418 30.4877 9.52094L24.1418 14.8877L24.6098 15.2869L30.8797 9.98447C30.9586 9.91771 30.9685 9.79959 30.9017 9.72064Z" fill="#10202D"/>
</svg>
