<svg width="500" height="500" viewBox="0 0 500 500" fill="none" xmlns="http://www.w3.org/2000/svg">
<path fill-rule="evenodd" clip-rule="evenodd" d="M250 500C388.071 500 500 388.071 500 250C500 111.929 388.071 0 250 0C111.929 0 0 111.929 0 250C0 388.071 111.929 500 250 500ZM250.168 483.997C379.494 483.997 484.334 379.157 484.334 249.831C484.334 120.504 379.494 15.6641 250.168 15.6641C120.841 15.6641 16.001 120.504 16.001 249.831C16.001 379.157 120.841 483.997 250.168 483.997ZM470.087 249.831C470.087 371.289 371.626 469.75 250.168 469.75C128.71 469.75 30.2482 371.289 30.2482 249.831C30.2482 128.373 128.71 29.9113 250.168 29.9113C371.626 29.9113 470.087 128.373 470.087 249.831ZM327.047 92.4609C327.81 91.8003 328.963 91.8829 329.624 92.6454L335.76 99.7275C336.42 100.49 336.338 101.644 335.575 102.304L331.177 106.115C330.415 106.775 329.261 106.693 328.6 105.93L322.465 98.848C321.804 98.0856 321.887 96.932 322.649 96.2715L327.047 92.4609ZM321.695 100.236C321.208 99.6735 320.357 99.6125 319.795 100.1C319.232 100.587 319.171 101.438 319.658 102.001L324.813 107.95C325.3 108.513 326.151 108.574 326.714 108.086C327.276 107.599 327.337 106.748 326.85 106.185L321.695 100.236ZM315.892 102.956C316.655 102.295 317.808 102.378 318.469 103.14L323.873 109.378C324.533 110.14 324.451 111.294 323.688 111.954L323.271 112.316C322.508 112.977 321.355 112.894 320.694 112.132L315.29 105.894C314.63 105.132 314.712 103.978 315.475 103.318L315.892 102.956ZM217.072 190.313C215.514 188.459 212.749 188.219 210.895 189.776L154.005 237.573C152.152 239.13 151.911 241.895 153.469 243.749L156.489 247.344C158.047 249.198 160.812 249.438 162.666 247.881L219.556 200.085C221.41 198.527 221.65 195.762 220.092 193.908L217.072 190.313ZM150.566 244.878C151.184 244.359 152.106 244.439 152.625 245.057L155.071 247.968C155.59 248.586 155.51 249.508 154.892 250.027C154.274 250.546 146.716 256.725 146.716 256.725C146.099 257.245 145.177 257.165 144.658 256.547L142.212 253.635C141.693 253.017 141.773 252.096 142.39 251.576L150.566 244.878ZM139.093 252.473C138.574 251.855 137.652 251.775 137.034 252.294L132.269 256.584C131.651 257.103 131.571 258.024 132.09 258.642L138.269 265.997C138.788 266.615 139.71 266.695 140.327 266.175L145.093 261.886C145.711 261.367 145.791 260.445 145.271 259.827L139.093 252.473ZM129.41 260.11C129.93 259.674 130.705 259.741 131.141 260.26L136.204 266.286C136.641 266.806 136.573 267.581 136.054 268.017C135.534 268.454 134.759 268.386 134.323 267.867L129.26 261.841C128.824 261.321 128.891 260.546 129.41 260.11ZM127.94 309.195C122.28 312.509 119.934 322.076 122.036 326.694C123.722 330.396 127.998 339.496 129.626 342.957C129.979 343.706 129.636 344.593 128.874 344.918L119.851 348.768C119.138 349.072 118.312 348.766 117.968 348.072L108.232 328.423C107.481 327.012 107.533 325.368 107.572 324.146C107.593 323.469 107.611 322.922 107.485 322.614C107.133 321.752 106.04 318.971 106.04 318.971L104.058 314.532C102.011 319.718 102.063 323.208 105.959 331.279L115.935 354.097L145.121 341.462L149.88 295.43L136.34 279.594L126.326 288.008L131.634 299.545C133.279 303.23 133.601 305.881 127.94 309.195ZM136.074 272.462L125.409 259.768C123.852 257.914 121.087 257.674 119.233 259.231L79.0386 293.001C73.1685 297.932 72.4078 306.689 77.3396 312.559L80.3476 316.139C82.1098 318.237 84.7155 319.208 87.2513 318.972L87.2753 318.97L97.7801 347.55L97.8761 347.788C103.047 360.588 104.958 367.215 100.28 374.041C98.9736 375.796 98.4844 376.868 99.0604 379.298C99.4994 381.577 101.702 383.068 103.98 382.629L110.748 379.625L124.472 373.625L117.585 357.872L149.148 344.597L154.241 293.867L136.074 272.462ZM121.248 377.243C120.999 376.688 120.349 376.44 119.794 376.689L112.468 379.973C111.914 380.222 111.666 380.872 111.914 381.427C112.163 381.981 112.813 382.229 113.368 381.981L120.694 378.697C121.249 378.448 121.496 377.797 121.248 377.243ZM121.853 379.34C122.589 379.01 123.454 379.34 123.784 380.076L126.599 386.356C126.929 387.092 126.599 387.957 125.863 388.287L117.079 392.224C116.343 392.554 115.478 392.224 115.148 391.488L112.334 385.208C112.003 384.472 112.333 383.607 113.069 383.277L121.853 379.34ZM126.346 390.743C126.015 390.007 125.151 389.678 124.414 390.008L119.423 392.246C118.686 392.576 118.357 393.44 118.687 394.177L123.108 404.039C123.438 404.775 124.303 405.105 125.039 404.775L125.624 404.512L126.718 406.952C127.048 407.688 127.913 408.018 128.649 407.687L129.816 407.164C130.553 406.834 130.882 405.97 130.552 405.233L129.458 402.794L130.031 402.537C130.767 402.207 131.097 401.342 130.767 400.606L126.346 390.743ZM170.668 92.6454C171.329 91.8829 172.482 91.8003 173.245 92.4609L177.643 96.2715C178.405 96.932 178.488 98.0856 177.827 98.848L171.692 105.93C171.031 106.693 169.877 106.775 169.115 106.115L164.717 102.304C163.954 101.644 163.872 100.49 164.532 99.7275L170.668 92.6454ZM180.498 100.1C179.935 99.6125 179.084 99.6735 178.597 100.236L173.442 106.185C172.955 106.748 173.016 107.599 173.578 108.086C174.141 108.574 174.992 108.513 175.479 107.95L180.634 102.001C181.121 101.438 181.06 100.587 180.498 100.1ZM181.823 103.14C182.484 102.378 183.637 102.295 184.4 102.956L184.817 103.318C185.58 103.978 185.662 105.132 185.002 105.894L179.598 112.132C178.937 112.894 177.784 112.977 177.021 112.316L176.604 111.954C175.841 111.294 175.759 110.14 176.419 109.378L181.823 103.14ZM186.825 108.559C186.055 107.908 184.902 108.004 184.251 108.775L182.785 110.508C182.133 111.278 182.23 112.431 183 113.082L245.56 165.989L250.146 169.868L277.215 192.76C277.985 193.412 279.137 193.315 279.789 192.545L281.255 190.812C281.906 190.042 281.81 188.889 281.04 188.238L254.732 165.989L250.146 162.111L186.825 108.559ZM283.22 190.313C284.778 188.459 287.543 188.219 289.397 189.776L346.287 237.573C348.141 239.13 348.381 241.895 346.823 243.749L343.803 247.344C342.245 249.198 339.48 249.438 337.626 247.881L280.736 200.085C278.883 198.527 278.642 195.762 280.2 193.908L283.22 190.313ZM349.726 244.878C349.108 244.359 348.186 244.439 347.667 245.057L345.221 247.968C344.702 248.586 344.782 249.508 345.4 250.027C346.018 250.546 353.576 256.725 353.576 256.725C354.194 257.245 355.115 257.165 355.634 256.547L358.08 253.635C358.6 253.017 358.52 252.096 357.902 251.576L349.726 244.878ZM361.199 252.473C361.718 251.855 362.64 251.775 363.258 252.294L368.023 256.584C368.641 257.103 368.721 258.024 368.202 258.642L362.023 265.997C361.504 266.615 360.583 266.695 359.965 266.175L355.199 261.886C354.582 261.367 354.501 260.445 355.021 259.827L361.199 252.473ZM370.882 260.11C370.362 259.674 369.587 259.741 369.151 260.26L364.088 266.286C363.651 266.806 363.719 267.581 364.238 268.017C364.758 268.454 365.533 268.386 365.969 267.867L371.032 261.841C371.469 261.321 371.401 260.546 370.882 260.11ZM372.352 309.195C378.012 312.509 380.358 322.076 378.256 326.694C376.57 330.396 372.294 339.496 370.666 342.957C370.313 343.706 370.656 344.593 371.418 344.918L380.441 348.768C381.154 349.072 381.98 348.766 382.324 348.072L392.06 328.423C392.811 327.012 392.759 325.368 392.72 324.146C392.699 323.469 392.681 322.922 392.807 322.614C393.159 321.752 394.252 318.971 394.252 318.971L396.234 314.532C398.282 319.718 398.229 323.208 394.333 331.279L384.357 354.097L355.171 341.462L350.412 295.43L363.952 279.594L373.966 288.008L368.658 299.545C367.013 303.23 366.691 305.881 372.352 309.195ZM413.017 318.97L402.512 347.55L402.416 347.788C397.245 360.588 395.334 367.215 400.012 374.041C401.319 375.796 401.808 376.868 401.232 379.298C400.793 381.577 398.59 383.068 396.312 382.629L389.544 379.625L375.82 373.625L382.707 357.872L351.144 344.597L346.051 293.867L364.218 272.462L374.883 259.768C376.44 257.914 379.205 257.674 381.059 259.231L421.254 293.001C427.124 297.932 427.884 306.689 422.952 312.559L419.944 316.139C418.182 318.237 415.577 319.208 413.041 318.972L413.017 318.97ZM379.044 377.243C379.293 376.688 379.944 376.44 380.498 376.689L387.824 379.973C388.379 380.222 388.627 380.872 388.378 381.427C388.13 381.981 387.479 382.229 386.924 381.981L379.598 378.697C379.044 378.448 378.796 377.797 379.044 377.243ZM378.439 379.34C377.703 379.01 376.838 379.34 376.508 380.076L373.693 386.356C373.363 387.092 373.693 387.957 374.429 388.287L383.213 392.224C383.949 392.554 384.814 392.224 385.144 391.488L387.959 385.208C388.289 384.472 387.959 383.607 387.223 383.277L378.439 379.34ZM373.946 390.743C374.277 390.007 375.141 389.678 375.878 390.008L380.87 392.246C381.606 392.576 381.935 393.44 381.605 394.177L377.184 404.039C376.854 404.775 375.99 405.105 375.253 404.775L374.668 404.512L373.574 406.952C373.244 407.688 372.379 408.018 371.643 407.687L370.476 407.164C369.739 406.834 369.41 405.97 369.74 405.233L370.834 402.794L370.261 402.537C369.525 402.207 369.195 401.342 369.525 400.606L373.946 390.743ZM219.037 190.812L220.503 192.545C221.155 193.315 222.307 193.412 223.077 192.76L248.629 171.151L244.062 167.256L219.253 188.238C218.482 188.889 218.386 190.042 219.037 190.812ZM316.041 108.775L317.507 110.508C318.159 111.278 318.062 112.431 317.292 113.082L256.118 164.818L251.551 160.922L313.467 108.559C314.238 107.908 315.39 108.004 316.041 108.775Z" fill="#A1C2DE"/>
</svg>
